<?xml version="1.0" encoding="UTF-8" standalone="no"?>
<svg
   xmlns:dc="http://purl.org/dc/elements/1.1/"
   xmlns:cc="http://creativecommons.org/ns#"
   xmlns:rdf="http://www.w3.org/1999/02/22-rdf-syntax-ns#"
   xmlns:svg="http://www.w3.org/2000/svg"
   xmlns="http://www.w3.org/2000/svg"
   xmlns:sodipodi="http://sodipodi.sourceforge.net/DTD/sodipodi-0.dtd"
   xmlns:inkscape="http://www.inkscape.org/namespaces/inkscape"
   inkscape:version="1.0 (4035a4fb49, 2020-05-01)"
   sodipodi:docname="Group7.svg"
   id="svg12"
   version="1.1"
   viewBox="0 0 62 62"
   height="62px"
   width="62px">
  <metadata
     id="metadata18">
    <rdf:RDF>
      <cc:Work
         rdf:about="">
        <dc:format>image/svg+xml</dc:format>
        <dc:type
           rdf:resource="http://purl.org/dc/dcmitype/StillImage" />
      </cc:Work>
    </rdf:RDF>
  </metadata>
  <defs
     id="defs16" />
  <sodipodi:namedview
     inkscape:current-layer="svg12"
     inkscape:window-maximized="1"
     inkscape:window-y="-9"
     inkscape:window-x="-9"
     inkscape:cy="32.603083"
     inkscape:cx="28.811135"
     inkscape:zoom="6.6935484"
     inkscape:snap-center="true"
     inkscape:snap-object-midpoints="true"
     inkscape:snap-midpoints="true"
     inkscape:snap-smooth-nodes="true"
     inkscape:snap-intersection-paths="true"
     inkscape:object-paths="true"
     inkscape:snap-bbox-midpoints="true"
     inkscape:snap-bbox-edge-midpoints="true"
     inkscape:bbox-nodes="true"
     inkscape:bbox-paths="true"
     inkscape:snap-bbox="true"
     inkscape:snap-global="false"
     showgrid="false"
     id="namedview14"
     inkscape:window-height="1001"
     inkscape:window-width="1920"
     inkscape:pageshadow="2"
     inkscape:pageopacity="0"
     guidetolerance="10"
     gridtolerance="10"
     objecttolerance="10"
     borderopacity="1"
     bordercolor="#666666"
     pagecolor="#ffffff" />
  <!-- Generator: Sketch 55.2 (78181) - https://sketchapp.com -->
  <title
     id="title2">Group 7</title>
  <desc
     id="desc4">Created with Sketch.</desc>
  <g
     id="g896">
    <g
       id="Marshmello_landing-page"
       stroke="none"
       stroke-width="1"
       fill="none"
       fill-rule="evenodd">
      <g
         id="Simple_landngpage"
         transform="translate(-677.000000, -950.000000)">
        <g
           id="Group-7"
           transform="translate(678.000000, 951.000000)">
          <path
             d="M58,54.0215 C58,56.230625 56.209125,58.0215 54,58.0215 L6,58.0215 C3.790875,58.0215 2,56.230625 2,54.0215 L2,53.0215 C2,52.46925 2.44775,52.0215 3,52.0215 L22,52.0215 L22,53.0215 C22,54.678375 23.343125,56.0215 25,56.0215 L35,56.0215 C36.656875,56.0215 38,54.678375 38,53.0215 L38,52.0215 L57,52.0215 C57.55225,52.0215 58,52.46925 58,53.0215 L58,54.0215 Z M24,52.0215 L36,52.0215 L36,53.0215 C36,53.57375 35.55225,54.0215 35,54.0215 L25,54.0215 C24.44775,54.0215 24,53.57375 24,53.0215 L24,52.0215 Z M41,21.1325 L41,17.9625 C42.082125,17.84075 43.13275,17.52175 44.1,17.0215 L55,17.0215 C55.568125,17.038875 56.015125,17.512375 56.0003728,18.0805 L56.0003728,50.0215 L3.99962732,50.0215 L3.99962732,18.0805 C3.984875,17.512375 4.432,17.038875 5,17.0215 L35.9,17.0215 C36.86725,17.52175 37.917875,17.84075 39,17.9625 L39,29.0215 L35,29.0215 C34.44775,29.0215 34,29.46925 34,30.0215 L34,33.0215 L25,33.0215 C24.44775,33.0215 24,33.46925 24,34.0215 L24,38.0215 L15,38.0215 C14.44775,38.0215 14,38.46925 14,39.0215 L14,46.0215 L10,46.0215 L10,48.0215 L51,48.0215 L51,46.0215 L46,46.0215 L46,30.0215 C46,29.46925 45.55225,29.0215 45,29.0215 L41,29.0215 L41,27.0215 L41,21.1325 Z M16,46.0215 L24,46.0215 L24,40.0215 L16,40.0215 L16,46.0215 Z M26,46.0215 L34,46.0215 L34,35.0215 L26,35.0215 L26,46.0215 Z M36,46.0215 L44,46.0215 L44,31.0215 L36,31.0215 L36,46.0215 Z M40,2.0215 C43.866,2.0215 47,5.1555 47,9.0215 C47,12.8875 43.866,16.0215 40,16.0215 C36.134,16.0215 33,12.8875 33,9.0215 C33.005,5.1575 36.136125,2.0265 40,2.0215 L40,2.0215 Z M58,50.2055 L58,18.0805 C58.014375,16.408125 56.672375,15.039625 55,15.0215 L46.689,15.0215 C50.0145,11.32725 49.715625,5.636625 46.021375,2.311125 C42.327125,-1.0145 36.6365,-0.7155 33.311,2.97875 C30.229625,6.40175 30.229625,11.5985 33.311,15.0215 L5,15.0215 C3.327625,15.039625 1.9855,16.408125 2,18.0805 L2,50.2055 C0.805625,50.62775 0.00525,51.754625 0,53.0215 L0,54.0215 C0.00325,57.333875 2.687625,60.01825 6,60.0215 L54,60.0215 C57.312375,60.01825 59.99675,57.333875 60,54.0215 L60,53.0215 C59.99475,51.754625 59.194375,50.62775 58,50.2055 L58,50.2055 Z"
             id="Fill-1"
             stroke="#FFFFFF"
             stroke-width="0.5"
             fill="#161514" />
          <path
             d="M11,19.0215 L7,19.0215 C6.44775,19.0215 6,19.46925 6,20.0215 L6,24.0215 L8,24.0215 L8,21.0215 L11,21.0215 L11,19.0215 Z"
             id="Fill-5"
             fill="#006DF0" />
        </g>
      </g>
    </g>
    <path
       id="rect845"
       style="opacity:1;fill:#ff4c1f;fill-opacity:1;stroke:none;stroke-width:1.03326;stroke-opacity:1"
       d="M 41.041016 3.6738281 A 2.5583005 2.5583005 0 0 0 38.482422 6.2324219 A 2.5583005 2.5583005 0 0 0 41.041016 8.7910156 A 2.5583005 2.5583005 0 0 0 43.599609 6.2324219 A 2.5583005 2.5583005 0 0 0 41.041016 3.6738281 z M 41.962891 9.2714844 L 41.271484 10.351562 L 42.103516 14.5 L 41.041016 16.058594 L 39.978516 14.5 L 40.810547 10.351562 L 40.050781 9.28125 C 38.031353 9.4135673 36.439453 11.067095 36.439453 13.121094 L 36.439453 14.904297 A 6.66655 6.66655 0 0 0 40.992188 16.705078 A 6.66655 6.66655 0 0 0 45.666016 14.791016 L 45.666016 13.121094 C 45.666016 11.035629 44.026437 9.3577125 41.962891 9.2714844 z " />
    <circle
       style="opacity:1;fill:#ffffff;fill-opacity:1;stroke:#161514;stroke-width:1.40424;stroke-miterlimit:4;stroke-dasharray:none;stroke-opacity:1"
       id="path881"
       cx="20.816822"
       cy="9.9854946"
       r="8.0400324" />
    <path
       style="fill:none;stroke:#161514;stroke-width:1.5;stroke-linecap:butt;stroke-linejoin:miter;stroke-opacity:1;stroke-miterlimit:4;stroke-dasharray:none"
       d="M 20.915663,39.590361 V 17.628916"
       id="path883" />
    <path
       d="M 20.863767,3.6738281 A 2.5583005,2.5583005 0 0 0 18.305173,6.2324219 2.5583005,2.5583005 0 0 0 20.863767,8.7910156 2.5583005,2.5583005 0 0 0 23.42236,6.2324219 2.5583005,2.5583005 0 0 0 20.863767,3.6738281 Z M 21.785642,9.2714844 21.094235,10.351562 21.926267,14.5 20.863767,16.058594 19.801267,14.5 20.633298,10.351562 19.873532,9.28125 c -2.019428,0.1323173 -3.611328,1.785845 -3.611328,3.839844 v 1.783203 a 6.66655,6.66655 0 0 0 4.552735,1.800781 6.66655,6.66655 0 0 0 4.673828,-1.914062 v -1.669922 c 0,-2.085465 -1.639579,-3.7633815 -3.703125,-3.8496096 z"
       style="opacity:1;fill:#006df0;fill-opacity:1;stroke:none;stroke-width:1.03326;stroke-opacity:1"
       id="path885" />
  </g>
</svg>
