<?xml version="1.0" encoding="UTF-8" standalone="no"?>
<svg
   xmlns:dc="http://purl.org/dc/elements/1.1/"
   xmlns:cc="http://creativecommons.org/ns#"
   xmlns:rdf="http://www.w3.org/1999/02/22-rdf-syntax-ns#"
   xmlns:svg="http://www.w3.org/2000/svg"
   xmlns="http://www.w3.org/2000/svg"
   xmlns:xlink="http://www.w3.org/1999/xlink"
   xmlns:sodipodi="http://sodipodi.sourceforge.net/DTD/sodipodi-0.dtd"
   xmlns:inkscape="http://www.inkscape.org/namespaces/inkscape"
   inkscape:version="1.0 (4035a4fb49, 2020-05-01)"
   sodipodi:docname="Group12.svg"
   id="svg23"
   version="1.1"
   viewBox="0 0 62 61"
   height="61px"
   width="62px">
  <metadata
     id="metadata27">
    <rdf:RDF>
      <cc:Work
         rdf:about="">
        <dc:format>image/svg+xml</dc:format>
        <dc:type
           rdf:resource="http://purl.org/dc/dcmitype/StillImage" />
      </cc:Work>
    </rdf:RDF>
  </metadata>
  <sodipodi:namedview
     inkscape:current-layer="svg23"
     inkscape:window-maximized="1"
     inkscape:window-y="-9"
     inkscape:window-x="-9"
     inkscape:cy="-17.692634"
     inkscape:cx="12.357996"
     inkscape:zoom="1"
     inkscape:bbox-paths="true"
     inkscape:bbox-nodes="true"
     inkscape:snap-bbox-edge-midpoints="true"
     inkscape:snap-bbox-midpoints="true"
     inkscape:snap-intersection-paths="true"
     inkscape:snap-nodes="true"
     inkscape:object-paths="true"
     inkscape:snap-midpoints="true"
     inkscape:snap-smooth-nodes="true"
     inkscape:snap-center="true"
     inkscape:snap-object-midpoints="true"
     inkscape:snap-bbox="true"
     inkscape:snap-global="true"
     showgrid="false"
     id="namedview25"
     inkscape:window-height="1001"
     inkscape:window-width="1920"
     inkscape:pageshadow="2"
     inkscape:pageopacity="0"
     guidetolerance="10"
     gridtolerance="10"
     objecttolerance="10"
     borderopacity="1"
     bordercolor="#666666"
     pagecolor="#ffffff" />
  <!-- Generator: Sketch 55.2 (78181) - https://sketchapp.com -->
  <title
     id="title2">Group 12</title>
  <desc
     id="desc4">Created with Sketch.</desc>
  <defs
     id="defs7">
    <polygon
       points="0 59.975625 60 59.975625 60 0 0 0"
       id="path-1" />
  </defs>
  <g
     id="g931">
    <g
       id="Marshmello_landing-page"
       stroke="none"
       stroke-width="1"
       fill="none"
       fill-rule="evenodd">
      <g
         id="Simple_landngpage"
         transform="translate(-341.000000, -951.000000)">
        <g
           id="Group-12"
           transform="translate(342.000000, 951.000000)">
          <path
             d="M57,48.975625 L3,48.975625 C2.44775,48.975625 2,48.527875 2,47.975625 L2,44.975625 L58,44.975625 L58,47.975625 C58,48.527875 57.55225,48.975625 57,48.975625 L57,48.975625 Z M27,53.975625 L33,53.975625 L33,50.975625 L27,50.975625 L27,53.975625 Z M22,57.975625 L38,57.975625 L38,55.975625 L22,55.975625 L22,57.975625 Z M8.972,36.411625 C9.177,36.632 9.472125,36.745625 9.772,36.719625 C10.073,36.69525 10.34675,36.536 10.517,36.286625 C11.446875,34.915375 13.312375,34.557375 14.683625,35.48725 C15.5085,36.0465 16.00175,36.979 16,37.975625 C15.99775,38.036625 15.991375,38.0975 15.981,38.157625 L15.961,38.310625 C15.90075,38.859625 16.296875,39.3535 16.846,39.41375 C17.021625,39.433 17.199375,39.405375 17.361,39.333625 C19.3625,38.419625 21.726,39.301125 22.64,41.3025 C22.87975,41.8275 23.002625,42.3985 23.0000412,42.975625 L2,42.975625 L2,33.025625 C4.660375,33.262 7.14125,34.466875 8.972,36.411625 L8.972,36.411625 Z M39,40.975625 C39.71425,40.980625 40.402625,41.243 40.939,41.714625 C41.358125,42.074125 41.9895,42.02575 42.349125,41.606625 C42.4185,41.525625 42.4745,41.43425 42.515,41.335625 C43.962625,37.76225 48.033,36.038875 51.606375,37.4865 C51.706875,37.527125 51.8065,37.57025 51.905,37.615625 C52.292,37.79175 52.748,37.703875 53.042,37.396625 C54.396625,35.972625 56.109,34.9385 58,34.402625 L58,42.975625 L36.184,42.975625 C36.60625,41.78125 37.733125,40.980875 39,40.975625 L39,40.975625 Z M57,12.975625 L39,12.975625 L39,14.975625 L57,14.975625 C57.55225,14.975625 58,15.423375 58,15.975625 L58,32.331625 C55.780375,32.85675 53.73975,33.960875 52.085875,35.531625 C47.9745,34.016625 43.37,35.69225 41.194,39.495625 C40.5135,39.15275 39.762,38.9745 39,38.975625 C36.624875,38.978625 34.578375,40.64925 34.1,42.975625 L25,42.975625 C24.99675,39.66325 22.312375,36.978875 19,36.975625 C18.637375,36.97525 18.2755,37.008875 17.919,37.075625 C17.420875,34.3595 14.81525,32.5615 12.099125,33.0595 C11.182125,33.22775 10.330375,33.648875 9.64,34.275625 C7.52475,32.373625 4.837125,31.228375 2,31.020625 L2,15.975625 C2,15.423375 2.44775,14.975625 3,14.975625 L21,14.975625 L21,12.975625 L3,12.975625 C1.343125,12.975625 0,14.31875 0,15.975625 L0,47.975625 C0,49.6325 1.343125,50.975625 3,50.975625 L25,50.975625 L25,53.975625 L21,53.975625 C20.44775,53.975625 20,54.423375 20,54.975625 L20,57.975625 L18,57.975625 L18,59.975625 L42,59.975625 L42,57.975625 L40,57.975625 L40,54.975625 C40,54.423375 39.55225,53.975625 39,53.975625 L35,53.975625 L35,50.975625 L57,50.975625 C58.656875,50.975625 60,49.6325 60,47.975625 L60,15.975625 C60,14.31875 58.656875,12.975625 57,12.975625 L57,12.975625 Z"
             id="Fill-5"
             stroke="#FFFFFF"
             stroke-width="0.5"
             fill="#161514" />
          <mask
             id="mask-2"
             fill="white">
            <use
               xlink:href="#path-1"
               id="use12" />
          </mask>
          <g
             id="Clip-8" />
        </g>
      </g>
    </g>
    <path
       id="path916"
       style="color:#000000;font-style:normal;font-variant:normal;font-weight:normal;font-stretch:normal;font-size:medium;line-height:normal;font-family:sans-serif;font-variant-ligatures:normal;font-variant-position:normal;font-variant-caps:normal;font-variant-numeric:normal;font-variant-alternates:normal;font-variant-east-asian:normal;font-feature-settings:normal;font-variation-settings:normal;text-indent:0;text-align:start;text-decoration:none;text-decoration-line:none;text-decoration-style:solid;text-decoration-color:#000000;letter-spacing:normal;word-spacing:normal;text-transform:none;writing-mode:lr-tb;direction:ltr;text-orientation:mixed;dominant-baseline:auto;baseline-shift:baseline;text-anchor:start;white-space:normal;shape-padding:0;shape-margin:0;inline-size:0;clip-rule:nonzero;display:inline;overflow:visible;visibility:visible;opacity:1;isolation:auto;mix-blend-mode:normal;color-interpolation:sRGB;color-interpolation-filters:linearRGB;solid-color:#000000;solid-opacity:1;vector-effect:none;fill:#ff6237;fill-opacity:1;fill-rule:nonzero;stroke:none;stroke-width:2.22366;stroke-linecap:round;stroke-linejoin:miter;stroke-miterlimit:4;stroke-dasharray:none;stroke-dashoffset:0;stroke-opacity:1;color-rendering:auto;image-rendering:auto;shape-rendering:auto;text-rendering:auto;enable-background:accumulate;stop-color:#000000;stop-opacity:1"
       d="M 31.230086,0.30947421 A 1.11183,1.11183 0 0 0 30.118758,1.4227555 V 17.877834 a 1.11183,1.11183 0 0 0 1.111328,1.113281 1.11183,1.11183 0 0 0 1.111328,-1.113281 V 1.4227555 A 1.11183,1.11183 0 0 0 31.230086,0.30947421 Z M 27.843367,1.1668961 A 1.11183,1.11183 0 0 0 26.732039,2.2782242 V 18.735256 a 1.11183,1.11183 0 0 0 1.111328,1.113281 1.11183,1.11183 0 0 0 1.111328,-1.113281 V 2.2782242 A 1.11183,1.11183 0 0 0 27.843367,1.1668961 Z m 6.699219,0 A 1.11183,1.11183 0 0 0 33.431258,2.2782242 V 18.735256 a 1.11183,1.11183 0 0 0 1.111328,1.113281 1.11183,1.11183 0 0 0 1.111328,-1.113281 V 2.2782242 A 1.11183,1.11183 0 0 0 34.542586,1.1668961 Z m 3.294922,4.5761719 a 1.11183,1.11183 0 0 0 -1.105469,1.1171875 l 0.06445,13.6679685 c -0.138141,3.295912 -0.810093,4.854879 -1.46875,7.832032 -0.64063,2.895665 -1.20514,7.000533 -1.119141,14.859374 h 2.22461 c -0.08681,-7.75687 0.459337,-11.634932 1.066406,-14.378906 0.623665,-2.818988 1.370128,-4.65057 1.519531,-8.222656 v -0.02539 L 38.954695,6.8504899 A 1.11183,1.11183 0 0 0 37.837508,5.743068 Z M 22.808211,9.7567399 a 1.11183,1.11183 0 0 0 -0.08984,0.00195 1.11183,1.11183 0 0 0 -0.554688,0.1875 1.11183,1.11183 0 0 0 -0.30664,1.542969 c 0.585506,0.873993 0.796723,2.331418 0.845703,4.013672 0.04898,1.682253 -0.04297,3.533734 0.304687,5.248046 0.486133,2.397139 1.059874,3.894093 2.685547,6.179688 0.382845,0.538256 0.815974,1.335432 1.066406,3.775391 0.243246,2.369931 0.252694,6.254236 -0.238281,12.513671 h 2.228516 C 29.232104,36.99507 29.234208,33.050457 28.97032,30.479396 28.695945,27.806164 28.091258,26.465078 27.505476,25.641506 25.984084,23.502523 25.647729,22.58077 25.187117,20.309474 24.92235,19.003898 24.977541,17.229249 24.925398,15.43838 24.873255,13.647514 24.732981,11.785817 23.704695,10.25088 A 1.11183,1.11183 0 0 0 22.808211,9.7567399 Z" />
    <path
       style="fill:none;stroke:#006df0;stroke-width:2;stroke-linecap:butt;stroke-linejoin:miter;stroke-miterlimit:4;stroke-dasharray:none;stroke-opacity:1"
       d="M 5.6787427,19.259744 8.1134793,21.69448 12.729336,17.078624"
       id="path872" />
  </g>
</svg>
