<?xml version="1.0" encoding="UTF-8" standalone="no"?>
<!-- Created with Inkscape (http://www.inkscape.org/) -->

<svg
   xmlns:dc="http://purl.org/dc/elements/1.1/"
   xmlns:cc="http://creativecommons.org/ns#"
   xmlns:rdf="http://www.w3.org/1999/02/22-rdf-syntax-ns#"
   xmlns:svg="http://www.w3.org/2000/svg"
   xmlns="http://www.w3.org/2000/svg"
   xmlns:sodipodi="http://sodipodi.sourceforge.net/DTD/sodipodi-0.dtd"
   xmlns:inkscape="http://www.inkscape.org/namespaces/inkscape"
   width="1024"
   height="387"
   viewBox="0 0 270.93333 102.39375"
   version="1.1"
   id="svg1489"
   inkscape:version="0.92.4 (5da689c313, 2019-01-14)"
   sodipodi:docname="PriimkSprendimaLogo.svg">
  <defs
     id="defs1483" />
  <sodipodi:namedview
     id="base"
     pagecolor="#ffffff"
     bordercolor="#666666"
     borderopacity="1.0"
     inkscape:pageopacity="0.0"
     inkscape:pageshadow="2"
     inkscape:zoom="0.83913688"
     inkscape:cx="532.23877"
     inkscape:cy="241.3565"
     inkscape:document-units="mm"
     inkscape:current-layer="layer1"
     showgrid="false"
     units="px"
     inkscape:snap-bbox="true"
     inkscape:bbox-paths="true"
     inkscape:snap-bbox-edge-midpoints="true"
     inkscape:snap-bbox-midpoints="true"
     inkscape:bbox-nodes="true"
     inkscape:snap-page="true"
     inkscape:snap-global="false"
     inkscape:window-width="1920"
     inkscape:window-height="1017"
     inkscape:window-x="-8"
     inkscape:window-y="-8"
     inkscape:window-maximized="1" />
  <metadata
     id="metadata1486">
    <rdf:RDF>
      <cc:Work
         rdf:about="">
        <dc:format>image/svg+xml</dc:format>
        <dc:type
           rdf:resource="http://purl.org/dc/dcmitype/StillImage" />
        <dc:title></dc:title>
      </cc:Work>
    </rdf:RDF>
  </metadata>
  <g
     inkscape:label="Layer 1"
     inkscape:groupmode="layer"
     id="layer1"
     transform="translate(0,-194.60623)">
    <g
       id="g1211"
       inkscape:export-xdpi="418.30051"
       inkscape:export-ydpi="418.30051"
       transform="matrix(4.3560095,0,0,4.3572959,-59.727433,-262.96574)">
      <rect
         style="opacity:0;fill:#ffffff;fill-opacity:1;stroke:none;stroke-width:2.06772971;stroke-linecap:butt;stroke-linejoin:miter;stroke-miterlimit:4;stroke-dasharray:none;stroke-opacity:1;paint-order:normal"
         id="rect1161"
         width="62.197441"
         height="23.499378"
         x="13.711662"
         y="105.01283" />
      <g
         id="g1201">
        <path
           sodipodi:nodetypes="sccs"
           inkscape:connector-curvature="0"
           d="m 49.053612,119.15767 c -6.95372,1.92457 -16.4273,-0.54023 -18.84913,-3.29731 13.57989,4.71294 20.20188,-0.85365 36.58613,1.69796 -7.37131,-0.62004 -13.5548,0.44185 -17.737,1.59935 z"
           style="fill:#df595a;fill-opacity:1;fill-rule:evenodd;stroke:none;stroke-width:0.34071848;stroke-linecap:butt;stroke-linejoin:miter;stroke-miterlimit:4;stroke-dasharray:none;stroke-opacity:1"
           id="path1157" />
        <path
           inkscape:connector-curvature="0"
           id="path1159"
           d="m 24.877752,114.06283 -0.6165,1.57923 c 7.23849,2.84211 14.053142,6.66889 24.79228,3.51555 -12.34089,1.98309 -15.21463,-2.87704 -24.17578,-5.09478 z"
           style="fill:#4fbd6e;fill-opacity:1;fill-rule:evenodd;stroke:none;stroke-width:0.34078202px;stroke-linecap:butt;stroke-linejoin:miter;stroke-opacity:1"
           sodipodi:nodetypes="cccc" />
        <path
           style="color:#000000;font-style:normal;font-variant:normal;font-weight:300;font-stretch:normal;font-size:6.13324308px;line-height:125%;font-family:Raleway;-inkscape-font-specification:'Raleway Light';font-variant-ligatures:normal;font-variant-position:normal;font-variant-caps:normal;font-variant-numeric:normal;font-variant-alternates:normal;font-feature-settings:normal;text-indent:0;text-align:start;text-decoration:none;text-decoration-line:none;text-decoration-style:solid;text-decoration-color:#000000;letter-spacing:0px;word-spacing:0px;text-transform:none;writing-mode:lr-tb;direction:ltr;text-orientation:mixed;dominant-baseline:auto;baseline-shift:baseline;text-anchor:start;white-space:normal;shape-padding:0;clip-rule:nonzero;display:inline;overflow:visible;visibility:visible;opacity:1;isolation:auto;mix-blend-mode:normal;color-interpolation:sRGB;color-interpolation-filters:linearRGB;solid-color:#000000;solid-opacity:1;vector-effect:none;fill:#4d4d5d;fill-opacity:1;fill-rule:nonzero;stroke:none;stroke-width:0.05;stroke-linecap:butt;stroke-linejoin:miter;stroke-miterlimit:4;stroke-dasharray:none;stroke-dashoffset:0;stroke-opacity:1;color-rendering:auto;image-rendering:auto;shape-rendering:auto;text-rendering:auto;enable-background:accumulate"
           d="m 42.507694,123.0375 c -0.230908,0 -0.44217,0.0262 -0.632811,0.08 -0.190778,0.0538 -0.354413,0.13559 -0.492189,0.24416 -0.137822,0.10439 -0.246842,0.23416 -0.326172,0.38865 -0.07545,0.15511 -0.11328,0.33383 -0.11328,0.53321 0,0.18274 0.03199,0.33583 0.09569,0.45899 0.06321,0.12221 0.156,0.22658 0.277345,0.31445 v 0.002 c 0.125012,0.0833 0.277553,0.15313 0.455078,0.21094 0.180716,0.0534 0.387518,0.10511 0.621094,0.15429 0.228417,0.049 0.428801,0.0995 0.599608,0.15234 0.170063,0.0526 0.308285,0.11568 0.416017,0.18751 0.111653,0.0718 0.194978,0.15565 0.25,0.2539 v 0.002 c 0.05458,0.0935 0.08202,0.20788 0.08202,0.34767 0,0.27572 -0.10226,0.47645 -0.312499,0.61132 -0.206905,0.13528 -0.499739,0.20508 -0.876953,0.20508 -0.328417,0 -0.62239,-0.0551 -0.884766,-0.16406 -0.263032,-0.11332 -0.484462,-0.26546 -0.666015,-0.45508 l -0.02344,-0.0214 -0.19336,0.29491 0.01563,0.0137 c 0.474623,0.43748 1.056167,0.6582 1.740234,0.6582 0.234817,0 0.448146,-0.0245 0.638672,-0.0741 0.194526,-0.0498 0.360221,-0.12269 0.498047,-0.21875 0.142,-0.10024 0.250708,-0.22435 0.326171,-0.37109 0.07993,-0.14723 0.11914,-0.32008 0.119141,-0.51561 -10e-7,-0.19537 -0.03712,-0.36071 -0.113281,-0.49612 -0.07154,-0.13465 -0.176515,-0.24788 -0.314454,-0.33982 -0.133511,-0.0918 -0.296112,-0.16483 -0.490233,-0.22266 -0.189112,-0.0617 -0.400975,-0.11875 -0.634767,-0.16798 v 0.002 c -0.224532,-0.0491 -0.415422,-0.0978 -0.574219,-0.14258 -0.157812,-0.0445 -0.288841,-0.0983 -0.392577,-0.16211 -0.09937,-0.0636 -0.171959,-0.13686 -0.21875,-0.22266 -0.04673,-0.0896 -0.0703,-0.2018 -0.0703,-0.33788 0,-0.2681 0.09255,-0.47589 0.279298,-0.63087 0.189441,-0.15786 0.493981,-0.24022 0.916015,-0.24022 0.510099,0 0.900653,0.15563 1.177735,0.46483 l 0.02148,0.0235 0.01758,-0.0273 0.171875,-0.26368 -0.01563,-0.0137 c -0.182171,-0.1739 -0.385307,-0.30178 -0.609376,-0.38477 -0.224148,-0.0871 -0.479006,-0.13087 -0.763671,-0.13087 z m -22.851562,0.0312 v 4.40429 h 0.363281 v -1.64453 h 1.488281 c 0.187331,0 0.360753,-0.0379 0.515624,-0.11327 0.153617,-0.0789 0.284323,-0.18376 0.39258,-0.31251 0.11249,-0.12915 0.199579,-0.27699 0.257812,-0.44336 h -0.0019 c 0.06237,-0.16631 0.09374,-0.33885 0.09374,-0.51757 0,-0.16627 -0.03356,-0.33056 -0.09961,-0.4922 v -0.002 c -0.06236,-0.16569 -0.15137,-0.31274 -0.267578,-0.44139 -0.112554,-0.13339 -0.247971,-0.23922 -0.406251,-0.31835 -0.158905,-0.0795 -0.332014,-0.11915 -0.51953,-0.11915 z m 3.808594,0 v 4.40429 h 0.02539 0.337891 v -1.64453 h 1.371094 l 1.05664,1.64453 h 0.419922 l -1.091796,-1.70507 c 0.1399,-0.0271 0.27167,-0.0716 0.390624,-0.14454 0.12934,-0.0793 0.24025,-0.17979 0.332032,-0.30077 0.09164,-0.1208 0.163012,-0.25663 0.212891,-0.40626 0.04986,-0.15374 0.07421,-0.31258 0.07421,-0.4746 0,-0.16627 -0.03356,-0.33056 -0.09961,-0.4922 v -0.002 c -0.06236,-0.16569 -0.15137,-0.31274 -0.267578,-0.44139 -0.112552,-0.13339 -0.247972,-0.23922 -0.406249,-0.31835 -0.158907,-0.0795 -0.333969,-0.11915 -0.521485,-0.11915 z m 3.976562,0 v 4.40429 h 0.02539 0.33789 v -4.40429 z m 1.451172,0 v 4.40429 h 0.02344 0.337892 v -4.40429 z m 1.449218,0 v 4.40429 h 0.361328 v -3.70313 l 1.679687,2.87501 h 0.224611 l 1.677735,-2.87111 v 3.69923 h 0.02539 0.33789 v -4.40429 h -0.353515 l -1.800782,3.08985 -1.800781,-3.08985 z m 5.402344,0 v 4.40429 h 0.02539 0.337891 v -1.35743 l 0.861328,-0.88867 1.738282,2.2461 h 0.417969 l -1.91797,-2.4707 1.833984,-1.93359 h -0.43164 l -2.501953,2.60546 v -2.60546 z m 9.115235,0 v 4.40429 h 0.02539 0.337891 v -1.64453 h 1.490234 c 0.187332,0 0.3588,-0.0379 0.513673,-0.11327 0.154084,-0.0791 0.286085,-0.18322 0.394532,-0.31251 0.112489,-0.12915 0.197624,-0.27699 0.255859,-0.44336 0.06237,-0.16631 0.09375,-0.33885 0.09375,-0.51757 0,-0.16627 -0.03356,-0.33056 -0.09961,-0.4922 v -0.002 c -0.06236,-0.16569 -0.153322,-0.31274 -0.269531,-0.44139 -0.112553,-0.13339 -0.247971,-0.23922 -0.40625,-0.31835 -0.158907,-0.0795 -0.332016,-0.11915 -0.519531,-0.11915 z m 3.810547,0 v 4.40429 h 0.02344 0.33789 v -1.64453 h 1.373048 l 1.054687,1.64453 h 0.421874 l -1.093749,-1.70507 c 0.139957,-0.0271 0.273583,-0.0716 0.392577,-0.14454 0.12934,-0.0793 0.238296,-0.17979 0.330078,-0.30077 0.09164,-0.1208 0.163014,-0.25663 0.212892,-0.40626 0.04986,-0.15374 0.07616,-0.31258 0.07616,-0.4746 0,-0.16627 -0.03551,-0.33056 -0.101563,-0.4922 v -0.002 c -0.06236,-0.16569 -0.15137,-0.31274 -0.267578,-0.44139 -0.112553,-0.13339 -0.247971,-0.23922 -0.40625,-0.31835 -0.158906,-0.0795 -0.332015,-0.11915 -0.519531,-0.11915 z m 3.976562,0 v 4.40429 h 2.951173 v -0.33204 h -0.02539 -2.5625 v -1.75975 h 2.212892 v -0.32033 h -2.212892 v -1.66013 H 55.5409 v -0.33204 z m 3.750001,0 v 4.40429 h 0.361328 v -3.71876 l 2.968749,3.71876 h 0.326173 v -4.40429 h -0.363281 v 3.78515 l -3.017578,-3.78515 z m 4.742188,0 v 4.40429 h 0.02539 1.447266 c 0.317545,0 0.604492,-0.0527 0.861328,-0.15625 h 0.0019 c 0.260505,-0.10752 0.481661,-0.25657 0.664063,-0.44726 0.182352,-0.19479 0.320932,-0.42659 0.416015,-0.6953 0.09925,-0.27296 0.148438,-0.57652 0.148438,-0.91018 0,-0.30087 -0.04216,-0.58329 -0.128907,-0.84766 -0.08681,-0.2687 -0.218524,-0.50223 -0.392578,-0.70116 -0.174288,-0.1992 -0.393551,-0.35688 -0.658202,-0.47265 -0.261364,-0.11617 -0.565871,-0.17383 -0.912109,-0.17383 z m 4.373046,0 v 4.40429 h 0.02539 0.337891 v -4.40429 z m 1.449219,0 v 4.40429 h 0.363281 v -3.69923 l 1.677735,2.87111 h 0.224608 l 1.677736,-2.87111 v 3.69923 h 0.02539 0.337891 v -4.40429 h -0.351562 l -1.802734,3.0879 -1.800782,-3.0879 z m 6.773437,0 -1.874999,4.40429 h 0.392578 l 0.607422,-1.43554 h 2.044921 l 0.607422,1.43554 h 0.02148 c -0.12489,0.0942 -0.235506,0.18445 -0.300781,0.27149 v 0.002 c -0.07168,0.10544 -0.109376,0.21242 -0.109376,0.32032 0,0.10788 0.03784,0.20344 0.11133,0.28124 0.0777,0.0777 0.186054,0.13078 0.320311,0.16017 l 0.01758,0.004 0.0098,-0.0155 0.115236,-0.21679 -0.03711,-0.004 c -0.09704,-0.0139 -0.166014,-0.0428 -0.210938,-0.084 -0.04492,-0.0411 -0.0664,-0.0956 -0.0664,-0.16797 0,-0.0868 0.0338,-0.17002 0.103516,-0.25195 0.07493,-0.0828 0.203684,-0.18476 0.386719,-0.30272 l 0.01758,-0.0117 -1.853516,-4.38867 z m -53.714844,0.33203 h 1.439453 c 0.127196,0 0.246342,0.0265 0.357423,0.0821 0.115667,0.0559 0.215131,0.13286 0.298828,0.22851 0.08774,0.0958 0.157052,0.20787 0.205077,0.33594 0.05186,0.12365 0.07812,0.25452 0.07812,0.39453 0,0.13633 -0.0223,0.26822 -0.0664,0.39648 v 0.002 c -0.04001,0.12399 -0.09979,0.23412 -0.179688,0.334 -0.07554,0.0955 -0.169579,0.17455 -0.281249,0.23437 v -0.002 c -0.11076,0.0555 -0.235225,0.084 -0.374999,0.084 h -1.476564 z m 3.808594,0 h 1.458985 c 0.131143,0 0.252396,0.0284 0.36328,0.0878 v 0.002 c 0.115667,0.0559 0.215131,0.13092 0.298828,0.22656 0.08774,0.0957 0.155102,0.20787 0.203125,0.33595 h 0.0019 c 0.05189,0.12374 0.07616,0.25283 0.07616,0.38867 0,0.13215 -0.02032,0.26228 -0.06445,0.39062 -0.04001,0.12398 -0.09979,0.23606 -0.179687,0.33594 -0.07974,0.0958 -0.17533,0.17255 -0.28711,0.23242 -0.110773,0.0593 -0.233796,0.0898 -0.369139,0.0898 h -1.501954 z m 21.394531,0 h 1.441407 c 0.127196,0 0.244388,0.0265 0.355468,0.0821 h 0.0019 c 0.115667,0.0559 0.213179,0.13286 0.296876,0.22851 h 0.0019 c 0.08774,0.0958 0.155101,0.20787 0.203126,0.33594 0.05186,0.12365 0.07812,0.25452 0.07812,0.39453 0,0.13633 -0.0223,0.26822 -0.0664,0.39648 v 0.002 c -0.04001,0.12399 -0.09979,0.23412 -0.179688,0.334 -0.07499,0.0948 -0.16874,0.17277 -0.279295,0.23242 -0.110762,0.0555 -0.237179,0.084 -0.376955,0.084 H 45.2224 Z m 3.808594,0 h 1.458985 c 0.131144,0 0.252398,0.0284 0.363281,0.0878 v 0.002 c 0.115667,0.0559 0.215132,0.13092 0.298829,0.22656 h 0.0019 c 0.08774,0.0957 0.155102,0.20787 0.203125,0.33595 0.05189,0.12374 0.07812,0.25283 0.07812,0.38867 0,0.13215 -0.02228,0.26228 -0.0664,0.39062 -0.04001,0.12398 -0.09979,0.23606 -0.179686,0.33594 -0.07974,0.0958 -0.175333,0.17255 -0.28711,0.23242 -0.110776,0.0593 -0.233797,0.0898 -0.369141,0.0898 H 49.03112 Z m 12.470704,0 h 1.109374 c 0.279351,0 0.525208,0.0462 0.738282,0.13865 0.213627,0.0926 0.392396,0.22192 0.537108,0.38673 0.148854,0.16493 0.261175,0.36164 0.337892,0.5918 0.07671,0.22609 0.115234,0.4745 0.115235,0.74608 0,0.26746 -0.03845,0.51579 -0.115235,0.7461 -0.07267,0.22608 -0.181208,0.42463 -0.326172,0.59376 -0.14471,0.16882 -0.325233,0.30165 -0.54297,0.39844 -0.21302,0.0923 -0.460659,0.13866 -0.74414,0.13866 h -1.109374 z m 12.382811,0.13886 0.914063,2.1914 h -1.845702 z"
           id="text1165"
           inkscape:connector-curvature="0"
           sodipodi:nodetypes="ccccscccccccccscscccccsccccccccccccscsccccccccccccsccccsccccccccccccccccccsccccccccccccccccccccccccccccccccccccccccccccccccccccscccsccccccccccccccccccsccccccccccccccccccccccccccccccccccsccccscccscccccccccccccccccccccccccccccccscccccccsccccccscccscccccscccscccccscccscccscccccsccccscccscccccscccscccscccccccscccccc" />
        <path
           sodipodi:nodetypes="ccccccccccc"
           inkscape:connector-curvature="0"
           id="path1167"
           d="m 26.648427,105.86769 -9.613835,1.76709 2.62154,14.26477 14.26476,-2.62154 -2.346555,-12.76855 c -0.31661,0.60694 -0.62949,1.22466 -0.93844,1.85208 l 1.819975,9.90671 -11.78998,2.1668 -2.16679,-11.79051 7.401575,-1.35988 c 0.2364,-0.46353 0.48475,-0.93547 0.74775,-1.41697 z"
           style="color:#000000;font-style:normal;font-variant:normal;font-weight:normal;font-stretch:normal;font-size:medium;line-height:normal;font-family:sans-serif;font-variant-ligatures:normal;font-variant-position:normal;font-variant-caps:normal;font-variant-numeric:normal;font-variant-alternates:normal;font-feature-settings:normal;text-indent:0;text-align:start;text-decoration:none;text-decoration-line:none;text-decoration-style:solid;text-decoration-color:#000000;letter-spacing:normal;word-spacing:normal;text-transform:none;writing-mode:lr-tb;direction:ltr;text-orientation:mixed;dominant-baseline:auto;baseline-shift:baseline;text-anchor:start;white-space:normal;shape-padding:0;clip-rule:nonzero;display:inline;overflow:visible;visibility:visible;opacity:1;isolation:auto;mix-blend-mode:normal;color-interpolation:sRGB;color-interpolation-filters:linearRGB;solid-color:#000000;solid-opacity:1;vector-effect:none;fill:#4d4d5d;fill-opacity:1;fill-rule:nonzero;stroke:none;stroke-width:2.3812499;stroke-linecap:butt;stroke-linejoin:miter;stroke-miterlimit:4;stroke-dasharray:none;stroke-dashoffset:0;stroke-opacity:1;paint-order:normal;color-rendering:auto;image-rendering:auto;shape-rendering:auto;text-rendering:auto;enable-background:accumulate" />
        <path
           inkscape:connector-curvature="0"
           id="path1169"
           d="m 15.461782,113.02827 c -0.56503,0.002 -1.1482,0.0126 -1.75028,0.0331 3.97779,0.15694 7.49952,1.36874 10.98693,2.75591 l 0.63872,-1.6366 c -2.62843,-0.69249 -5.77617,-1.16377 -9.87537,-1.15238 z"
           style="fill:#6cbf57;fill-opacity:1;fill-rule:evenodd;stroke:none;stroke-width:0.34078202px;stroke-linecap:butt;stroke-linejoin:miter;stroke-opacity:1" />
        <path
           sodipodi:nodetypes="cccccc"
           inkscape:connector-curvature="0"
           id="path1171"
           d="m 31.299292,105.01283 -3.47447,0.63863 c -1.75507,3.16051 -3.03585,6.708 -4.00509,9.44645 -2.76371,-1.05058 -5.97259,-1.96128 -10.10807,-2.03668 4.94282,0.97773 9.2207,3.44132 11.7897,5.20001 1.45007,-4.16983 3.55789,-9.03406 5.79793,-13.24841 z"
           style="fill:#fedb3c;fill-opacity:1;fill-rule:evenodd;stroke:none;stroke-width:0.27957872px;stroke-linecap:butt;stroke-linejoin:miter;stroke-opacity:1" />
      </g>
    </g>
  </g>
</svg>
