<?xml version="1.0" standalone="no"?>
<!DOCTYPE svg PUBLIC "-//W3C//DTD SVG 20010904//EN"
 "http://www.w3.org/TR/2001/REC-SVG-20010904/DTD/svg10.dtd">
<svg version="1.0" xmlns="http://www.w3.org/2000/svg"
 width="700.000000pt" height="700.000000pt" viewBox="0 0 700.000000 700.000000"
 preserveAspectRatio="xMidYMid meet">
<metadata>
Created by potrace 1.11, written by Peter Selinger 2001-2013
</metadata>
<g transform="translate(0.000000,700.000000) scale(0.100000,-0.100000)"
fill="#000000" stroke="none">
<path d="M5360 6249 c-19 -4 -53 -11 -75 -14 -22 -4 -71 -13 -110 -20 -38 -8
-108 -21 -155 -29 -47 -9 -121 -22 -165 -30 -85 -15 -132 -24 -180 -32 -16 -3
-75 -14 -130 -24 -55 -11 -118 -22 -140 -25 -22 -4 -48 -8 -57 -11 -10 -3 -30
-7 -45 -10 -38 -7 -41 -11 -123 -164 -305 -576 -590 -1229 -882 -2023 -41
-113 -44 -118 -68 -113 -14 3 -79 16 -145 30 -215 45 -386 70 -640 92 -27 2
-223 7 -434 9 -211 3 -386 6 -388 8 -4 5 -8 21 -28 137 -8 47 -17 96 -20 110
-3 14 -10 52 -15 85 -6 33 -15 80 -19 105 -5 25 -14 72 -20 105 -6 33 -29 156
-51 274 -22 118 -38 216 -37 218 2 1 21 5 43 9 21 3 58 10 82 15 23 5 59 12
80 15 20 3 44 7 52 9 18 5 74 15 112 20 14 2 61 10 105 19 43 8 89 17 103 20
103 17 161 28 200 36 25 5 61 12 80 15 71 11 157 26 227 40 39 8 88 18 109 21
20 3 46 8 58 10 34 6 228 43 261 49 17 3 41 7 55 9 14 3 52 10 85 15 33 6 71
13 85 16 13 3 101 19 195 36 l171 32 82 161 c83 162 164 318 228 434 38 70 39
73 22 67 -7 -2 -26 -6 -43 -9 -49 -8 -148 -26 -175 -31 -14 -3 -38 -7 -55 -10
-58 -10 -81 -14 -220 -40 -77 -15 -151 -29 -165 -31 -97 -17 -317 -58 -375
-69 -38 -8 -86 -17 -105 -20 -19 -3 -48 -8 -65 -12 -16 -3 -39 -7 -50 -9 -11
-2 -33 -6 -50 -9 -135 -25 -185 -34 -215 -39 -19 -3 -46 -8 -60 -11 -63 -12
-257 -48 -275 -50 -11 -2 -83 -15 -160 -30 -77 -15 -153 -29 -170 -31 -16 -3
-41 -7 -55 -10 -14 -3 -36 -8 -50 -10 -57 -10 -347 -64 -370 -69 -13 -2 -42
-7 -65 -10 -22 -3 -47 -8 -55 -10 -13 -4 -339 -65 -347 -65 -1 0 0 -6 2 -12 2
-7 6 -24 9 -38 2 -14 9 -54 16 -90 6 -36 13 -74 15 -85 1 -11 14 -81 29 -155
14 -74 28 -151 31 -170 3 -19 14 -80 25 -135 19 -98 22 -118 40 -220 5 -27 27
-149 50 -270 22 -121 42 -231 45 -245 2 -14 9 -47 14 -75 5 -27 7 -52 5 -54
-5 -6 -20 -8 -94 -16 -30 -4 -95 -13 -145 -21 -49 -8 -103 -17 -120 -20 -16
-2 -50 -9 -75 -14 -25 -5 -56 -12 -70 -14 -37 -6 -204 -44 -221 -50 -8 -3 -25
-8 -39 -10 -33 -6 -47 -10 -163 -42 l-99 -27 134 -39 c205 -60 492 -158 718
-246 315 -123 294 -111 304 -177 6 -36 12 -73 20 -115 2 -8 6 -33 10 -55 4
-22 16 -85 27 -140 10 -55 21 -116 24 -135 3 -19 17 -96 31 -170 14 -74 41
-220 60 -325 19 -104 36 -197 39 -205 2 -8 6 -33 10 -55 5 -41 28 -166 66
-365 12 -63 23 -124 25 -135 5 -39 76 -420 79 -425 2 -3 6 -27 10 -55 3 -27
15 -94 26 -148 10 -54 19 -100 19 -102 0 -1 17 1 38 5 20 5 51 11 67 13 29 5
124 22 175 32 23 5 46 8 110 19 14 2 45 9 70 14 25 6 62 13 83 16 39 6 294 53
331 61 11 2 36 7 54 10 17 3 47 7 65 10 17 3 43 8 57 11 14 3 36 8 50 10 14 2
72 13 130 24 58 10 121 22 140 25 19 3 94 17 165 30 72 13 227 42 345 64 246
46 230 43 415 76 77 14 151 27 165 30 14 3 39 8 55 10 47 8 240 44 350 65 85
17 311 58 410 75 17 3 41 8 55 10 14 3 39 8 55 10 48 8 196 35 245 45 61 12
257 48 300 55 19 3 42 8 50 10 8 2 67 13 130 24 135 24 158 28 225 41 28 5 66
12 85 15 19 3 42 8 50 10 8 2 33 6 55 9 22 3 61 11 86 17 l46 10 -9 47 c-5 26
-16 85 -24 132 -8 47 -17 96 -20 110 -2 14 -11 61 -19 105 -8 44 -17 91 -20
105 -6 29 -16 86 -21 115 -2 11 -9 48 -16 83 -7 38 -8 66 -2 71 5 5 56 23 114
41 192 59 311 112 460 204 99 61 240 167 275 206 l20 23 -20 -6 c-32 -10 -230
-34 -345 -42 -77 -6 -403 -6 -475 0 -127 10 -119 5 -135 93 -7 42 -15 84 -16
92 -9 46 -125 681 -130 710 -3 19 -9 53 -14 75 -5 22 -12 56 -15 75 -3 19 -14
82 -25 140 -11 58 -21 116 -24 130 -2 14 -7 36 -10 50 -3 14 -8 41 -11 60 -11
66 -20 119 -32 175 -7 35 -31 169 -47 265 -4 19 -15 80 -25 135 -11 55 -23
118 -27 140 -4 22 -9 47 -10 55 -2 15 -40 223 -49 270 -3 14 -9 50 -15 80 -6
30 -12 66 -15 80 -3 14 -12 63 -20 110 -26 145 -42 220 -46 224 -9 10 -440
-854 -435 -871 3 -10 8 -34 11 -53 3 -19 17 -98 31 -175 15 -77 28 -151 30
-165 3 -14 9 -47 14 -75 5 -27 12 -63 15 -80 3 -16 7 -41 10 -55 3 -14 12 -62
20 -107 8 -46 22 -120 30 -165 8 -46 17 -94 20 -108 4 -22 15 -80 30 -165 3
-16 7 -41 10 -55 9 -47 46 -245 55 -295 29 -160 41 -223 45 -245 7 -35 25
-137 32 -182 l6 -38 -54 16 c-321 91 -672 228 -1079 421 -69 33 -140 65 -157
72 -18 8 -33 17 -33 21 0 7 103 257 181 435 39 90 284 645 309 700 17 39 39
86 47 105 9 19 38 82 66 140 27 58 65 139 84 180 141 302 568 1155 603 1205 7
10 21 46 17 44 -1 -1 -18 -5 -37 -10z m-3095 -3562 c200 -110 300 -168 480
-275 197 -118 435 -266 622 -388 l141 -92 15 42 c28 74 119 330 130 364 6 17
15 32 20 32 5 0 75 -14 156 -31 80 -17 156 -32 169 -35 81 -14 143 -25 182
-30 25 -3 70 -9 100 -14 30 -5 87 -12 125 -16 39 -3 84 -8 100 -10 178 -24
692 -24 890 0 17 2 55 7 86 10 l56 7 17 -87 c10 -47 16 -87 14 -89 -2 -2 -16
-6 -33 -9 -16 -3 -43 -8 -60 -11 -87 -16 -133 -25 -160 -30 -16 -3 -118 -21
-225 -40 -107 -20 -206 -38 -219 -40 -14 -2 -47 -9 -75 -14 -28 -6 -62 -12
-76 -15 -14 -2 -65 -12 -115 -21 -49 -10 -101 -19 -115 -22 -49 -8 -566 -103
-590 -108 -14 -3 -41 -8 -60 -11 -19 -3 -42 -7 -50 -9 -8 -3 -33 -7 -55 -11
-22 -3 -146 -25 -275 -49 -129 -24 -275 -51 -325 -60 -49 -9 -126 -23 -170
-32 -44 -8 -89 -16 -100 -18 -11 -1 -36 -6 -55 -9 -159 -30 -249 -46 -273 -50
-15 -3 -35 -7 -45 -10 -9 -3 -35 -7 -57 -11 -22 -3 -87 -14 -145 -25 -147 -27
-151 -28 -186 -35 l-32 -7 -11 63 c-6 35 -13 75 -16 89 -3 14 -7 36 -10 50
-36 206 -102 571 -115 630 -5 25 -12 62 -15 84 -3 21 -7 41 -9 45 -2 3 -7 28
-10 54 -4 26 -11 71 -17 100 -23 120 -69 373 -69 380 0 8 287 -137 465 -236z"/>
</g>
</svg>
